<svg width="281" height="26" viewBox="0 0 281 26" fill="none" xmlns="http://www.w3.org/2000/svg">
<path d="M12.784 23.6C5.70402 23.6 2.07402 21.56 0.664023 17.36L6.39402 15.62C7.05402 18.08 10.084 19.1 13.084 19.1C16.564 19.1 18.094 18.29 18.094 16.7C18.094 14.63 15.394 14.66 11.764 14.51C6.69402 14.3 1.38402 13.94 1.38402 8.03C1.38402 3.74 5.31402 0.859999 11.734 0.859999C17.884 0.859999 21.514 2.72 22.984 6.53L17.404 7.91C16.774 6.23 14.914 5.39 11.794 5.39C8.46402 5.39 6.81402 6.2 6.81402 7.55C6.81402 9.2 9.24402 9.23 12.664 9.38C17.854 9.62 23.704 9.98 23.704 16.16C23.704 21.02 19.984 23.6 12.784 23.6ZM38.1218 23.6C30.5618 23.6 25.0118 19.19 25.0118 12.23C25.0118 5.24 30.5618 0.859999 38.1218 0.859999C45.6218 0.859999 51.2018 5.24 51.2018 12.23C51.2018 19.19 45.6218 23.6 38.1218 23.6ZM30.6218 12.23C30.6218 16.43 33.8618 18.74 38.1218 18.74C42.3518 18.74 45.6218 16.43 45.6218 12.23C45.6218 8.03 42.3518 5.72 38.1218 5.72C33.8618 5.72 30.6218 8.03 30.6218 12.23ZM63.9823 23.6C57.5923 23.6 53.1223 21.35 53.1223 15.5V1.46H58.7623V14.78C58.7623 17.84 60.7423 18.74 63.9823 18.74C67.2223 18.74 69.2023 17.84 69.2023 14.78V1.46H74.8423V15.5C74.8423 21.35 70.3723 23.6 63.9823 23.6ZM77.5908 23V1.46H83.2308V18.14H94.6608V23H77.5908ZM108.408 23.6C100.788 23.6 95.1479 19.19 95.1479 12.23C95.1479 5.24 100.788 0.859999 108.408 0.859999C116.058 0.859999 121.698 5.24 121.698 12.23C121.698 14.99 120.828 17.33 119.298 19.16C120.348 19.97 121.248 21.05 121.698 23L117.378 25.1C117.168 23.6 116.598 22.64 115.818 21.92C113.748 23 111.198 23.6 108.408 23.6ZM100.758 12.23C100.758 16.52 104.088 18.83 108.408 18.83C109.278 18.83 110.088 18.74 110.868 18.56C109.818 17.63 108.888 16.31 108.318 14.24L112.248 12.35C112.938 14.18 113.838 15.35 114.798 16.22C115.608 15.17 116.088 13.85 116.088 12.23C116.088 8.03 112.758 5.72 108.408 5.72C104.088 5.72 100.758 8.03 100.758 12.23ZM134.617 23.6C128.227 23.6 123.757 21.35 123.757 15.5V1.46H129.397V14.78C129.397 17.84 131.377 18.74 134.617 18.74C137.857 18.74 139.837 17.84 139.837 14.78V1.46H145.477V15.5C145.477 21.35 141.007 23.6 134.617 23.6ZM145.756 23L154.546 1.46H162.676L171.466 23H165.406L163.876 19.01H153.346L151.816 23H145.756ZM155.086 14.42H162.136L159.076 6.35H158.146L155.086 14.42ZM172.835 23V1.46H185.915C192.785 1.46 195.125 4.67 195.125 8.06C195.125 10.16 194.225 12.14 191.645 13.1V13.4C194.735 13.79 195.125 15.62 195.125 17.6C195.125 19.4 195.125 21.2 195.725 23H190.085C189.485 21.41 189.485 19.79 189.485 18.5C189.485 16.7 188.585 15.71 185.825 15.71H178.475V23H172.835ZM178.475 11.09H185.975C188.525 11.09 189.485 10.16 189.485 8.63C189.485 6.08 186.815 6.08 185.825 6.08H178.475V11.09ZM197.942 23V1.46H203.522V23H197.942ZM204.936 23L213.726 1.46H221.856L230.646 23H224.586L223.056 19.01H212.526L210.996 23H204.936ZM214.266 14.42H221.316L218.256 6.35H217.326L214.266 14.42ZM232.015 23V1.46H238.525L249.475 16.07V1.46H255.115V23H248.545L237.625 8.3V23H232.015ZM269.278 23.6C262.198 23.6 258.568 21.56 257.158 17.36L262.888 15.62C263.548 18.08 266.578 19.1 269.578 19.1C273.058 19.1 274.588 18.29 274.588 16.7C274.588 14.63 271.888 14.66 268.258 14.51C263.188 14.3 257.878 13.94 257.878 8.03C257.878 3.74 261.808 0.859999 268.228 0.859999C274.378 0.859999 278.008 2.72 279.478 6.53L273.898 7.91C273.268 6.23 271.408 5.39 268.288 5.39C264.958 5.39 263.308 6.2 263.308 7.55C263.308 9.2 265.738 9.23 269.158 9.38C274.348 9.62 280.198 9.98 280.198 16.16C280.198 21.02 276.478 23.6 269.278 23.6Z" fill="white"/>
</svg>
