<svg width="15" height="16" viewBox="0 0 15 16" fill="none" xmlns="http://www.w3.org/2000/svg">
<path d="M7.73014 13.26C4.66214 13.26 3.08914 12.376 2.47814 10.556L4.96114 9.802C5.24714 10.868 6.56014 11.31 7.86014 11.31C9.36814 11.31 10.0311 10.959 10.0311 10.27C10.0311 9.373 8.86114 9.386 7.28814 9.321C5.09114 9.23 2.79014 9.074 2.79014 6.513C2.79014 4.654 4.49314 3.406 7.27514 3.406C9.94014 3.406 11.5131 4.212 12.1501 5.863L9.73214 6.461C9.45914 5.733 8.65314 5.369 7.30114 5.369C5.85814 5.369 5.14314 5.72 5.14314 6.305C5.14314 7.02 6.19614 7.033 7.67814 7.098C9.92714 7.202 12.4621 7.358 12.4621 10.036C12.4621 12.142 10.8501 13.26 7.73014 13.26Z" fill="black"/>
</svg>
